<svg width="206" height="52" viewBox="0 0 206 52" fill="none" xmlns="http://www.w3.org/2000/svg">
<path d="M132.272 16.0912C135.868 16.0912 138.327 18.3005 139.021 22.2256L125.46 22.2256C126.28 18.3005 128.739 16.0912 132.272 16.0912ZM147.852 25.6574C147.852 15.5362 141.924 9.34375 132.462 9.34375C123.001 9.34375 116.188 15.7212 116.188 25.0444C116.188 34.9189 123.191 41.2964 134.164 41.2964C138.64 41.2964 142.867 40.1936 146.02 38.231C146.524 37.9226 146.651 37.3712 146.46 36.8198L144.632 32.3433C144.315 31.4835 143.498 31.2404 142.677 31.6685C140.342 32.8947 137.443 33.5694 134.667 33.5694C129.496 33.5694 125.963 31.2985 125.333 27.8667L146.587 27.8667C147.281 27.8667 147.848 27.3153 147.848 26.6405V25.6574H147.852ZM95.2475 33.5077C90.7705 33.5077 87.7411 30.134 87.7411 25.2294C87.7411 20.3247 90.7705 16.766 95.2475 16.766C99.7245 16.766 102.69 20.2014 102.69 25.2294C102.69 30.2573 99.661 33.5077 95.2475 33.5077ZM98.0866 9.34375C93.923 9.34375 90.4534 10.9399 87.868 13.882V3.88408C87.868 3.20933 87.3009 2.65793 86.6069 2.65793L79.9213 2.65793C79.2274 2.65793 78.6603 3.20933 78.6603 3.88408V39.3955C78.6603 40.0702 79.2274 40.6216 79.9213 40.6216H86.6069C87.3009 40.6216 87.868 40.0702 87.868 39.3955V36.5731C90.4534 39.6385 93.923 41.2964 98.1501 41.2964C106.477 41.2964 112.405 34.7339 112.405 25.2294C112.405 15.7248 106.477 9.34375 98.0866 9.34375ZM63.4573 39.7038C60.4279 47.1261 55.5107 51.1129 49.2019 51.1129C48.1311 51.1129 47.0567 50.9896 46.0493 50.8045C45.4823 50.6812 45.1651 50.1915 45.1651 49.6401V44.4271C45.1651 43.5673 45.8591 43.0159 46.8067 43.1392C47.2469 43.2009 47.7543 43.2009 48.1945 43.2009C51.3471 43.2009 53.302 41.8514 53.8728 39.2758L43.5273 11.9847C43.1505 10.9436 43.781 10.0838 44.8518 10.0838L52.2313 10.0838C52.7349 10.0838 53.2423 10.3921 53.3655 10.8819L58.8535 29.1582L64.972 10.8819C65.0988 10.3921 65.6025 10.0838 66.1062 10.0838L73.3588 10.0838C74.4296 10.0838 75.0601 11.0669 74.6833 12.0464L63.4573 39.7075V39.7038ZM30.8463 14.6801C32.611 11.9811 35.2599 9.95683 38.9832 9.95683C39.6137 9.95683 39.9308 10.3849 39.9308 11.183V18.3585C39.9308 19.0333 39.3637 19.5847 38.6698 19.5847H35.5807C32.4916 19.5847 30.85 21.3006 30.85 24.4313V39.3955C30.85 40.0702 30.283 40.6216 29.589 40.6216L22.9668 40.6216C22.2729 40.6216 21.7058 40.0702 21.7058 39.3955L21.7058 11.2447C21.7058 10.5699 22.2729 10.0185 22.9668 10.0185H29.589C30.283 10.0185 30.85 10.5699 30.85 11.2447V14.6801H30.8463ZM9.21136 3.88408L9.21136 10.0185L16.6543 10.0185C17.3483 10.0185 17.9153 10.5699 17.9153 11.2447V16.3343C17.9153 17.009 17.3483 17.5605 16.6543 17.5605H9.21136L9.21136 28.7845C9.21136 31.3602 10.7895 32.7097 13.8786 32.7097C14.5725 32.7097 15.3933 32.648 16.2141 32.463C17.1617 32.278 17.9153 32.891 17.9153 33.8125V38.8404C17.9153 39.3919 17.5385 39.8816 16.9043 40.0049C14.8225 40.3713 12.7407 40.618 11.0395 40.618C4.29043 40.618 0 37.0012 0 31.4182L0 3.88046C0 3.20571 0.567084 2.6543 1.26101 2.6543L7.94662 2.6543C8.64055 2.6543 9.20763 3.20571 9.20763 3.88046L9.21136 3.88408Z" fill="#00362C"/>
<path d="M183.853 21.5492L162.532 21.5492C160.648 21.5492 159.976 19.1222 161.61 18.2044L193.591 0.251023C195.225 -0.666781 197.053 1.11078 196.109 2.69971L185.45 20.6531C185.122 21.2082 184.514 21.5492 183.853 21.5492Z" fill="#1DB702"/>
<path d="M205.771 7.09007V42.9969C205.771 44.8289 203.275 45.4818 202.331 43.8929L191.672 25.9395C191.344 25.3845 191.344 24.7025 191.672 24.1474L202.331 6.19403C203.275 4.60511 205.771 5.25809 205.771 7.09007Z" fill="#1DB702"/>
<path d="M185.449 29.4312L196.108 47.3846C197.052 48.9735 195.224 50.7511 193.59 49.8333L161.609 31.8799C159.975 30.9621 160.647 28.5352 162.531 28.5352L183.852 28.5352C184.509 28.5352 185.121 28.8762 185.449 29.4312Z" fill="#1DB702"/>
</svg>
