<svg width="548" height="109" viewBox="0 0 548 109" fill="none" xmlns="http://www.w3.org/2000/svg">
<path d="M-0.000316229 94.3995L-0.00030841 4.95746C-0.000308011 0.394093 6.09659 -1.23245 8.4023 2.72548L34.4395 47.4465C35.2415 48.829 35.2415 50.5279 34.4395 51.9104L8.40229 96.6314C6.09658 100.589 -0.000316628 98.9628 -0.000316229 94.3995Z" fill="#1DB702"/>
<path d="M43.1286 94.3995L43.1286 4.95746C43.1286 0.394093 49.2255 -1.23245 51.5312 2.72548L77.5684 47.4465C78.3704 48.829 78.3704 50.5279 77.5684 51.9104L51.5312 96.6314C49.2255 100.589 43.1286 98.9628 43.1286 94.3995Z" fill="#A0F046"/>
<path d="M86.2555 94.3995L86.2556 4.95746C86.2556 0.394093 92.3524 -1.23245 94.6582 2.72548L120.695 47.4465C121.497 48.829 121.497 50.5279 120.695 51.9104L94.6581 96.6314C92.3524 100.589 86.2555 98.9628 86.2555 94.3995Z" fill="#E1F2D5"/>
<path d="M526.709 97.3498C524.046 97.3498 521.663 96.7716 519.561 95.6153C517.458 94.4239 515.811 92.7944 514.62 90.727C513.429 88.6245 512.833 86.2767 512.833 83.6837C512.833 81.0906 513.429 78.7604 514.62 76.693C515.811 74.5905 517.458 72.961 519.561 71.8047C521.663 70.6133 524.046 70.0176 526.709 70.0176C529.337 70.0176 531.703 70.6133 533.805 71.8047C535.908 72.961 537.555 74.5905 538.746 76.693C539.937 78.7604 540.533 81.0906 540.533 83.6837C540.533 86.2767 539.937 88.6245 538.746 90.727C537.555 92.7944 535.908 94.4239 533.805 95.6153C531.703 96.7716 529.337 97.3498 526.709 97.3498ZM519.351 83.6837C519.351 86.0665 520.016 88.0113 521.348 89.5181C522.715 91.0249 524.502 91.7782 526.709 91.7782C528.882 91.7782 530.634 91.0249 531.966 89.5181C533.332 88.0113 534.015 86.0665 534.015 83.6837C534.015 81.3009 533.332 79.3561 531.966 77.8493C530.634 76.3425 528.882 75.5891 526.709 75.5891C524.502 75.5891 522.715 76.3425 521.348 77.8493C520.016 79.321 519.351 81.2658 519.351 83.6837Z" fill="#E1F2D5"/>
<path d="M494.378 97.3503C492.661 97.3503 491.137 97.0174 489.805 96.3516C488.474 95.6507 487.44 94.7046 486.704 93.5132C485.968 92.2868 485.6 90.9202 485.6 89.4134C485.6 86.8554 486.494 84.823 488.281 83.3162C490.103 81.8094 492.521 81.056 495.535 81.056H500.423C501.054 81.056 501.527 80.8984 501.842 80.583C502.157 80.2326 502.315 79.7945 502.315 79.2689C502.315 77.9374 501.842 76.8686 500.896 76.0627C499.95 75.2567 498.636 74.8537 496.954 74.8537C495.307 74.8537 493.975 75.2917 492.959 76.1678C491.978 77.0438 491.452 78.1126 491.382 79.3741H485.548C485.688 77.622 486.249 76.0451 487.23 74.6435C488.211 73.2068 489.56 72.0855 491.277 71.2795C493.029 70.4385 495.009 70.018 497.217 70.018C499.459 70.018 501.457 70.4385 503.209 71.2795C504.961 72.0855 506.31 73.2418 507.256 74.7486C508.237 76.2203 508.728 77.9374 508.728 79.8997V96.9298H502.315V92.9876C501.789 94.3192 500.808 95.3879 499.372 96.1939C497.935 96.9648 496.27 97.3503 494.378 97.3503ZM491.855 89.1506C491.855 90.1668 492.223 90.9903 492.959 91.621C493.695 92.2517 494.676 92.5671 495.903 92.5671C497.9 92.5671 499.459 91.9364 500.581 90.6749C501.737 89.4134 502.315 87.7665 502.315 85.7341V85.3136H496.376C495.009 85.3136 493.905 85.664 493.064 86.3648C492.258 87.0656 491.855 87.9942 491.855 89.1506ZM500.633 66.8643C499.897 66.8643 499.267 66.7592 498.741 66.5489C498.215 66.3387 497.602 66.0408 496.901 65.6554C496.06 65.1298 495.359 64.867 494.799 64.867C494.273 64.867 493.818 65.0422 493.432 65.3926C493.082 65.7079 492.871 66.146 492.801 66.7066H488.596C488.596 64.8144 489.157 63.2375 490.278 61.976C491.4 60.6795 492.766 60.0312 494.378 60.0312C495.114 60.0312 495.745 60.1364 496.27 60.3466C496.831 60.5569 497.427 60.8547 498.058 61.2402C498.513 61.5205 498.899 61.7308 499.214 61.8709C499.529 62.0111 499.862 62.0812 500.213 62.0812C500.738 62.0812 501.194 61.906 501.579 61.5555C501.965 61.2051 502.21 60.7496 502.315 60.1889H506.468C506.432 62.1863 505.854 63.7982 504.733 65.0246C503.612 66.2511 502.245 66.8643 500.633 66.8643Z" fill="#E1F2D5"/>
<path d="M467.961 97.2447C465.613 96.9644 463.546 96.1934 461.759 94.932C460.007 93.6705 458.657 92.0761 457.711 90.1488C456.8 88.1865 456.345 86.0315 456.345 83.6837C456.345 81.1607 456.888 78.8655 457.974 76.7981C459.095 74.6956 460.672 73.0487 462.705 71.8572C464.737 70.6308 467.102 70.0176 469.801 70.0176C472.008 70.0176 474.041 70.4381 475.898 71.2791C477.755 72.1201 479.262 73.3115 480.418 74.8533C481.61 76.3601 482.293 78.1121 482.468 80.1095H476.003C475.793 78.8129 475.109 77.7442 473.953 76.9032C472.832 76.0272 471.5 75.5891 469.958 75.5891C467.751 75.5891 466.034 76.3425 464.807 77.8493C463.616 79.3561 463.02 81.3009 463.02 83.6837C463.02 86.0665 463.633 88.0113 464.86 89.5181C466.086 91.0249 467.803 91.7782 470.011 91.7782C471.553 91.7782 472.867 91.3928 473.953 90.6219C475.039 89.8159 475.758 88.7472 476.108 87.4156H482.573C482.188 90.0437 480.996 92.2688 478.999 94.091C477.002 95.8781 474.514 96.9293 471.535 97.2447L470.589 99.0844C470.799 99.0493 471.132 99.0318 471.588 99.0318C473.024 99.0318 474.233 99.3822 475.214 100.083C476.196 100.819 476.686 101.835 476.686 103.132C476.686 104.708 476.02 105.917 474.689 106.758C473.357 107.634 471.605 108.072 469.433 108.072C467.961 108.072 466.524 107.827 465.123 107.337V103.815C466.594 104.306 468.031 104.551 469.433 104.551C471.36 104.551 472.324 104.06 472.324 103.079C472.324 102.659 472.096 102.343 471.64 102.133C471.22 101.923 470.659 101.818 469.958 101.818C469.152 101.818 468.381 101.923 467.646 102.133L466.174 100.766L467.961 97.2447Z" fill="#E1F2D5"/>
<path d="M437.836 97.3498C436.119 97.3498 434.595 97.0169 433.263 96.3511C431.932 95.6503 430.898 94.7042 430.162 93.5128C429.426 92.2863 429.058 90.9197 429.058 89.4129C429.058 86.8549 429.952 84.8225 431.739 83.3158C433.561 81.809 435.979 81.0556 438.993 81.0556H443.881C444.512 81.0556 444.985 80.8979 445.3 80.5825C445.615 80.2321 445.773 79.7941 445.773 79.2685C445.773 77.9369 445.3 76.8682 444.354 76.0622C443.408 75.2563 442.094 74.8533 440.412 74.8533C438.765 74.8533 437.433 75.2913 436.417 76.1673C435.436 77.0434 434.91 78.1121 434.84 79.3736H429.006C429.146 77.6215 429.707 76.0447 430.688 74.643C431.669 73.2063 433.018 72.085 434.735 71.2791C436.487 70.4381 438.467 70.0176 440.675 70.0176C442.917 70.0176 444.915 70.4381 446.667 71.2791C448.419 72.085 449.768 73.2414 450.714 74.7482C451.695 76.2199 452.186 77.9369 452.186 79.8992V96.9293H445.773V92.9872C445.248 94.3187 444.266 95.3875 442.83 96.1935C441.393 96.9644 439.729 97.3498 437.836 97.3498ZM435.313 89.1501C435.313 90.1663 435.681 90.9898 436.417 91.6206C437.153 92.2513 438.134 92.5667 439.361 92.5667C441.358 92.5667 442.917 91.9359 444.039 90.6744C445.195 89.413 445.773 87.766 445.773 85.7336V85.3131H439.834C438.467 85.3131 437.363 85.6635 436.522 86.3644C435.716 87.0652 435.313 87.9938 435.313 89.1501Z" fill="#E1F2D5"/>
<path d="M383.926 70.4381H390.391V74.5905C391.057 73.1888 392.038 72.085 393.334 71.2791C394.666 70.4381 396.225 70.0176 398.012 70.0176C400.115 70.0176 401.867 70.4556 403.269 71.3316C404.705 72.1726 405.721 73.4166 406.317 75.0635C406.948 73.6268 408.052 72.4354 409.629 71.4893C411.24 70.5082 413.063 70.0176 415.095 70.0176C416.952 70.0176 418.599 70.4381 420.036 71.2791C421.473 72.1201 422.576 73.2939 423.347 74.8007C424.118 76.2725 424.504 77.9369 424.504 79.7941V96.9293H418.039V81.7389C418.039 79.8467 417.583 78.3399 416.672 77.2186C415.761 76.0972 414.534 75.5366 412.993 75.5366C411.276 75.5366 409.909 76.1148 408.893 77.2711C407.912 78.3924 407.421 79.8817 407.421 81.7389V96.9293H401.008V81.7389C401.008 79.8467 400.553 78.3399 399.642 77.2186C398.731 76.0972 397.504 75.5366 395.962 75.5366C394.245 75.5366 392.879 76.0972 391.863 77.2186C390.881 78.3399 390.391 79.8467 390.391 81.7389V96.9293H383.926V70.4381Z" fill="#E1F2D5"/>
<path d="M363.895 97.3498C362.178 97.3498 360.654 97.0169 359.322 96.3511C357.99 95.6503 356.957 94.7042 356.221 93.5128C355.485 92.2863 355.117 90.9197 355.117 89.4129C355.117 86.8549 356.011 84.8225 357.798 83.3158C359.62 81.809 362.038 81.0556 365.051 81.0556H369.939C370.57 81.0556 371.043 80.8979 371.359 80.5825C371.674 80.2321 371.832 79.7941 371.832 79.2685C371.832 77.9369 371.359 76.8682 370.413 76.0622C369.466 75.2563 368.152 74.8533 366.47 74.8533C364.823 74.8533 363.492 75.2913 362.476 76.1673C361.495 77.0434 360.969 78.1121 360.899 79.3736H355.064C355.205 77.6215 355.765 76.0447 356.746 74.643C357.728 73.2063 359.077 72.085 360.794 71.2791C362.546 70.4381 364.526 70.0176 366.733 70.0176C368.976 70.0176 370.973 70.4381 372.725 71.2791C374.477 72.085 375.826 73.2414 376.773 74.7482C377.754 76.2199 378.244 77.9369 378.244 79.8992V96.9293H371.832V92.9872C371.306 94.3187 370.325 95.3875 368.888 96.1935C367.452 96.9644 365.787 97.3498 363.895 97.3498ZM361.372 89.1501C361.372 90.1663 361.74 90.9898 362.476 91.6206C363.212 92.2513 364.193 92.5667 365.419 92.5667C367.417 92.5667 368.976 91.9359 370.097 90.6744C371.254 89.413 371.832 87.766 371.832 85.7336V85.3131H365.892C364.526 85.3131 363.422 85.6635 362.581 86.3644C361.775 87.0652 361.372 87.9938 361.372 89.1501Z" fill="#E1F2D5"/>
<path d="M349.487 75.8533C347.49 75.8533 346.036 76.6242 345.125 78.1661C344.214 79.6728 343.758 81.7578 343.758 84.4209V96.9307H337.293V70.4395H343.758V75.1175C344.424 73.4355 345.282 72.2441 346.334 71.5432C347.42 70.8074 348.822 70.4395 350.539 70.4395H353.64V75.8533H349.487Z" fill="#E1F2D5"/>
<path d="M308.302 102.501H320.497C321.793 102.501 322.845 102.045 323.65 101.134C324.491 100.258 324.912 99.1369 324.912 97.7703V93.9858C324.246 95.002 323.212 95.8255 321.811 96.4563C320.409 97.052 318.885 97.3498 317.238 97.3498C314.61 97.3498 312.35 96.7891 310.457 95.6678C308.565 94.5115 307.111 92.8996 306.095 90.8321C305.114 88.7647 304.623 86.3819 304.623 83.6837C304.623 80.9855 305.114 78.6027 306.095 76.5353C307.111 74.4678 308.548 72.8734 310.405 71.7521C312.297 70.5958 314.54 70.0176 317.133 70.0176C318.78 70.0176 320.287 70.333 321.653 70.9637C323.02 71.5594 324.106 72.3829 324.912 73.4341V70.4381H331.325V98.401C331.325 101.169 330.413 103.394 328.591 105.076C326.769 106.793 324.386 107.652 321.443 107.652H308.302V102.501ZM311.036 83.6837C311.036 86.1366 311.684 88.0989 312.98 89.5706C314.277 91.0424 315.994 91.7782 318.131 91.7782C320.304 91.7782 322.039 91.0424 323.335 89.5706C324.667 88.0989 325.332 86.1366 325.332 83.6837C325.332 81.2308 324.667 79.2685 323.335 77.7967C322.039 76.325 320.304 75.5891 318.131 75.5891C315.994 75.5891 314.277 76.325 312.98 77.7967C311.684 79.2685 311.036 81.2308 311.036 83.6837Z" fill="#E1F2D5"/>
<path d="M287.866 97.3498C285.202 97.3498 282.82 96.7716 280.717 95.6153C278.615 94.4239 276.968 92.7944 275.776 90.727C274.585 88.6245 273.989 86.2767 273.989 83.6837C273.989 81.0906 274.585 78.7604 275.776 76.693C276.968 74.5905 278.615 72.961 280.717 71.8047C282.82 70.6133 285.202 70.0176 287.866 70.0176C290.494 70.0176 292.859 70.6133 294.961 71.8047C297.064 72.961 298.711 74.5905 299.902 76.693C301.094 78.7604 301.689 81.0906 301.689 83.6837C301.689 86.2767 301.094 88.6245 299.902 90.727C298.711 92.7944 297.064 94.4239 294.961 95.6153C292.859 96.7716 290.494 97.3498 287.866 97.3498ZM280.507 83.6837C280.507 86.0665 281.173 88.0113 282.504 89.5181C283.871 91.0249 285.658 91.7782 287.866 91.7782C290.038 91.7782 291.79 91.0249 293.122 89.5181C294.488 88.0113 295.172 86.0665 295.172 83.6837C295.172 81.3009 294.488 79.3561 293.122 77.8493C291.79 76.3425 290.038 75.5891 287.866 75.5891C285.658 75.5891 283.871 76.3425 282.504 77.8493C281.173 79.321 280.507 81.2658 280.507 83.6837Z" fill="#E1F2D5"/>
<path d="M269.038 75.8533C267.041 75.8533 265.587 76.6242 264.675 78.1661C263.764 79.6728 263.309 81.7578 263.309 84.4209V96.9307H256.844V70.4395H263.309V75.1175C263.975 73.4355 264.833 72.2441 265.884 71.5432C266.971 70.8074 268.372 70.4395 270.089 70.4395H273.191V75.8533H269.038Z" fill="#E1F2D5"/>
<path d="M226.43 60.1367H241.147C243.67 60.1367 245.843 60.6273 247.665 61.6085C249.522 62.5546 250.941 63.8861 251.922 65.6032C252.903 67.3202 253.394 69.3 253.394 71.5427C253.394 73.7853 252.903 75.7651 251.922 77.4822C250.941 79.1992 249.522 80.5483 247.665 81.5295C245.843 82.4756 243.67 82.9486 241.147 82.9486H233.368V96.9301H226.43V60.1367ZM240.832 77.1142C242.759 77.1142 244.196 76.5886 245.142 75.5374C246.123 74.4861 246.613 73.1546 246.613 71.5427C246.613 69.9308 246.123 68.5992 245.142 67.548C244.196 66.4967 242.759 65.9711 240.832 65.9711H233.368V77.1142H240.832Z" fill="#E1F2D5"/>
<path d="M194.848 97.3498C193.131 97.3498 191.607 97.0169 190.275 96.3511C188.944 95.6503 187.91 94.7042 187.174 93.5128C186.438 92.2863 186.07 90.9197 186.07 89.4129C186.07 86.8549 186.964 84.8225 188.751 83.3158C190.573 81.809 192.991 81.0556 196.004 81.0556H200.893C201.523 81.0556 201.996 80.8979 202.312 80.5825C202.627 80.2321 202.785 79.7941 202.785 79.2685C202.785 77.9369 202.312 76.8682 201.366 76.0622C200.42 75.2563 199.106 74.8533 197.424 74.8533C195.777 74.8533 194.445 75.2913 193.429 76.1673C192.448 77.0434 191.922 78.1121 191.852 79.3736H186.018C186.158 77.6215 186.718 76.0447 187.7 74.643C188.681 73.2063 190.03 72.085 191.747 71.2791C193.499 70.4381 195.479 70.0176 197.686 70.0176C199.929 70.0176 201.926 70.4381 203.678 71.2791C205.43 72.085 206.78 73.2414 207.726 74.7482C208.707 76.2199 209.197 77.9369 209.197 79.8992V96.9293H202.785V92.9872C202.259 94.3187 201.278 95.3875 199.841 96.1935C198.405 96.9644 196.74 97.3498 194.848 97.3498ZM192.325 89.1501C192.325 90.1663 192.693 90.9898 193.429 91.6206C194.165 92.2513 195.146 92.5667 196.372 92.5667C198.37 92.5667 199.929 91.9359 201.05 90.6744C202.207 89.413 202.785 87.766 202.785 85.7336V85.3131H196.845C195.479 85.3131 194.375 85.6635 193.534 86.3644C192.728 87.0652 192.325 87.9938 192.325 89.1501Z" fill="#E1F2D5"/>
<path d="M156.901 70.4381H163.366V74.5379C164.067 73.1012 165.136 71.9974 166.573 71.2265C168.045 70.4206 169.726 70.0176 171.619 70.0176C173.581 70.0176 175.298 70.4731 176.77 71.3842C178.277 72.2602 179.433 73.4867 180.239 75.0635C181.045 76.6404 181.448 78.4625 181.448 80.53V96.9293H175.035V81.8966C175.035 80.0744 174.51 78.6027 173.458 77.4814C172.442 76.325 171.111 75.7468 169.464 75.7468C167.677 75.7468 166.205 76.3776 165.048 77.6391C163.927 78.9006 163.366 80.5124 163.366 82.4748V96.9293H156.901V70.4381Z" fill="#E1F2D5"/>
<path d="M537.803 39.0881C534.579 39.0881 531.968 38.2646 529.971 36.6177C527.974 34.9357 526.905 32.6755 526.765 29.8372H532.652C532.792 31.0987 533.317 32.0973 534.228 32.8332C535.175 33.5691 536.366 33.937 537.803 33.937C539.029 33.937 540.028 33.6742 540.799 33.1486C541.57 32.5879 541.955 31.9046 541.955 31.0987C541.955 30.3278 541.71 29.7321 541.219 29.3116C540.764 28.856 540.168 28.5407 539.432 28.3654C538.731 28.1552 537.733 27.9274 536.436 27.6821C534.544 27.3317 533.002 26.9463 531.811 26.5258C530.654 26.1053 529.638 25.3519 528.762 24.2656C527.921 23.1793 527.501 21.6375 527.501 19.6402C527.501 18.1334 527.903 16.7843 528.709 15.5929C529.55 14.3664 530.689 13.4203 532.126 12.7545C533.563 12.0888 535.175 11.7559 536.962 11.7559C540.08 11.7559 542.621 12.5443 544.583 14.1212C546.545 15.663 547.597 17.7304 547.737 20.3235H541.797C541.657 19.1671 541.114 18.256 540.168 17.5902C539.257 16.9245 538.241 16.5916 537.119 16.5916C535.963 16.5916 535.034 16.8544 534.334 17.38C533.668 17.8706 533.335 18.5539 533.335 19.4299C533.335 20.4811 533.755 21.1995 534.596 21.5849C535.472 21.9354 536.839 22.2332 538.696 22.4785C540.623 22.7588 542.2 23.1092 543.427 23.5297C544.688 23.9152 545.757 24.6861 546.633 25.8425C547.544 26.9638 548 28.6283 548 30.8359C548 33.3238 547.071 35.3211 545.214 36.8279C543.357 38.3347 540.886 39.0881 537.803 39.0881Z" fill="#E1F2D5"/>
<path d="M510.323 39.0881C507.66 39.0881 505.277 38.5099 503.174 37.3535C501.072 36.1621 499.425 34.5327 498.233 32.4653C497.042 30.3628 496.446 28.015 496.446 25.422C496.446 22.8289 497.042 20.4987 498.233 18.4312C499.425 16.3288 501.072 14.6993 503.174 13.543C505.277 12.3516 507.66 11.7559 510.323 11.7559C512.951 11.7559 515.316 12.3516 517.419 13.543C519.521 14.6993 521.168 16.3288 522.359 18.4312C523.551 20.4987 524.146 22.8289 524.146 25.422C524.146 28.015 523.551 30.3628 522.359 32.4653C521.168 34.5327 519.521 36.1621 517.419 37.3535C515.316 38.5099 512.951 39.0881 510.323 39.0881ZM502.964 25.422C502.964 27.8048 503.63 29.7496 504.961 31.2564C506.328 32.7631 508.115 33.5165 510.323 33.5165C512.495 33.5165 514.247 32.7631 515.579 31.2564C516.945 29.7496 517.629 27.8048 517.629 25.422C517.629 23.0392 516.945 21.0944 515.579 19.5876C514.247 18.0808 512.495 17.3274 510.323 17.3274C508.115 17.3274 506.328 18.0808 504.961 19.5876C503.63 21.0593 502.964 23.0041 502.964 25.422Z" fill="#E1F2D5"/>
<path d="M483.314 39.0881C480.091 39.0881 477.48 38.2646 475.483 36.6177C473.485 34.9357 472.417 32.6755 472.276 29.8372H478.163C478.303 31.0987 478.829 32.0973 479.74 32.8332C480.686 33.5691 481.878 33.937 483.314 33.937C484.541 33.937 485.54 33.6742 486.31 33.1486C487.081 32.5879 487.467 31.9046 487.467 31.0987C487.467 30.3278 487.221 29.7321 486.731 29.3116C486.275 28.856 485.68 28.5407 484.944 28.3654C484.243 28.1552 483.244 27.9274 481.948 27.6821C480.056 27.3317 478.514 26.9463 477.322 26.5258C476.166 26.1053 475.15 25.3519 474.274 24.2656C473.433 23.1793 473.012 21.6375 473.012 19.6402C473.012 18.1334 473.415 16.7843 474.221 15.5929C475.062 14.3664 476.201 13.4203 477.638 12.7545C479.074 12.0888 480.686 11.7559 482.473 11.7559C485.592 11.7559 488.133 12.5443 490.095 14.1212C492.057 15.663 493.108 17.7304 493.249 20.3235H487.309C487.169 19.1671 486.626 18.256 485.68 17.5902C484.769 16.9245 483.752 16.5916 482.631 16.5916C481.475 16.5916 480.546 16.8544 479.845 17.38C479.18 17.8706 478.847 18.5539 478.847 19.4299C478.847 20.4811 479.267 21.1995 480.108 21.5849C480.984 21.9354 482.351 22.2332 484.208 22.4785C486.135 22.7588 487.712 23.1092 488.939 23.5297C490.2 23.9152 491.269 24.6861 492.145 25.8425C493.056 26.9638 493.511 28.6283 493.511 30.8359C493.511 33.3238 492.583 35.3211 490.726 36.8279C488.868 38.3347 486.398 39.0881 483.314 39.0881Z" fill="#E1F2D5"/>
<path d="M459.356 39.0881C456.133 39.0881 453.522 38.2646 451.525 36.6177C449.527 34.9357 448.459 32.6755 448.318 29.8372H454.205C454.345 31.0987 454.871 32.0973 455.782 32.8332C456.728 33.5691 457.92 33.937 459.356 33.937C460.583 33.937 461.582 33.6742 462.352 33.1486C463.123 32.5879 463.509 31.9046 463.509 31.0987C463.509 30.3278 463.263 29.7321 462.773 29.3116C462.317 28.856 461.722 28.5407 460.986 28.3654C460.285 28.1552 459.286 27.9274 457.99 27.6821C456.098 27.3317 454.556 26.9463 453.364 26.5258C452.208 26.1053 451.192 25.3519 450.316 24.2656C449.475 23.1793 449.054 21.6375 449.054 19.6402C449.054 18.1334 449.457 16.7843 450.263 15.5929C451.104 14.3664 452.243 13.4203 453.68 12.7545C455.116 12.0888 456.728 11.7559 458.515 11.7559C461.634 11.7559 464.175 12.5443 466.137 14.1212C468.099 15.663 469.15 17.7304 469.291 20.3235H463.351C463.211 19.1671 462.668 18.256 461.722 17.5902C460.811 16.9245 459.794 16.5916 458.673 16.5916C457.517 16.5916 456.588 16.8544 455.887 17.38C455.222 17.8706 454.889 18.5539 454.889 19.4299C454.889 20.4811 455.309 21.1995 456.15 21.5849C457.026 21.9354 458.393 22.2332 460.25 22.4785C462.177 22.7588 463.754 23.1092 464.981 23.5297C466.242 23.9152 467.311 24.6861 468.187 25.8425C469.098 26.9638 469.553 28.6283 469.553 30.8359C469.553 33.3238 468.625 35.3211 466.768 36.8279C464.91 38.3347 462.44 39.0881 459.356 39.0881Z" fill="#E1F2D5"/>
<path d="M430.074 39.0881C428.357 39.0881 426.832 38.7552 425.501 38.0894C424.169 37.3886 423.135 36.4425 422.4 35.2511C421.664 34.0246 421.296 32.658 421.296 31.1512C421.296 28.5932 422.189 26.5608 423.976 25.054C425.799 23.5473 428.216 22.7939 431.23 22.7939H436.118C436.749 22.7939 437.222 22.6362 437.537 22.3208C437.853 21.9704 438.01 21.5324 438.01 21.0068C438.01 19.6752 437.537 18.6064 436.591 17.8005C435.645 16.9945 434.331 16.5916 432.649 16.5916C431.002 16.5916 429.671 17.0296 428.654 17.9056C427.673 18.7816 427.148 19.8504 427.078 21.1119H421.243C421.383 19.3598 421.944 17.783 422.925 16.3813C423.906 14.9446 425.255 13.8233 426.972 13.0173C428.724 12.1764 430.704 11.7559 432.912 11.7559C435.155 11.7559 437.152 12.1764 438.904 13.0173C440.656 13.8233 442.005 14.9797 442.951 16.4864C443.932 17.9582 444.423 19.6752 444.423 21.6375V38.6676H438.01V34.7254C437.485 36.057 436.504 37.1258 435.067 37.9317C433.63 38.7026 431.966 39.0881 430.074 39.0881ZM427.551 30.8884C427.551 31.9046 427.919 32.7281 428.654 33.3588C429.39 33.9896 430.371 34.3049 431.598 34.3049C433.595 34.3049 435.155 33.6742 436.276 32.4127C437.432 31.1512 438.01 29.5043 438.01 27.4719V27.0514H432.071C430.704 27.0514 429.601 27.4018 428.76 28.1026C427.954 28.8035 427.551 29.7321 427.551 30.8884Z" fill="#E1F2D5"/>
<path d="M392.396 1.87305H407.114C409.637 1.87305 411.809 2.36363 413.632 3.34478C415.489 4.2909 416.908 5.62247 417.889 7.33949C418.87 9.05652 419.361 11.0364 419.361 13.279C419.361 15.5216 418.87 17.5015 417.889 19.2185C416.908 20.9355 415.489 22.2846 413.632 23.2658C411.809 24.2119 409.637 24.6849 407.114 24.6849H399.335V38.6664H392.396V1.87305ZM406.798 18.8506C408.726 18.8506 410.162 18.3249 411.109 17.2737C412.09 16.2225 412.58 14.8909 412.58 13.279C412.58 11.6671 412.09 10.3355 411.109 9.28429C410.162 8.23305 408.726 7.70743 406.798 7.70743H399.335V18.8506H406.798Z" fill="#E1F2D5"/>
<path d="M366.139 39.0881C362.915 39.0881 360.304 38.2646 358.307 36.6177C356.31 34.9357 355.241 32.6755 355.101 29.8372H360.988C361.128 31.0987 361.653 32.0973 362.564 32.8332C363.511 33.5691 364.702 33.937 366.139 33.937C367.365 33.937 368.364 33.6742 369.135 33.1486C369.906 32.5879 370.291 31.9046 370.291 31.0987C370.291 30.3278 370.046 29.7321 369.555 29.3116C369.1 28.856 368.504 28.5407 367.768 28.3654C367.067 28.1552 366.069 27.9274 364.772 27.6821C362.88 27.3317 361.338 26.9463 360.147 26.5258C358.99 26.1053 357.974 25.3519 357.098 24.2656C356.257 23.1793 355.836 21.6375 355.836 19.6402C355.836 18.1334 356.239 16.7843 357.045 15.5929C357.886 14.3664 359.025 13.4203 360.462 12.7545C361.899 12.0888 363.511 11.7559 365.298 11.7559C368.416 11.7559 370.957 12.5443 372.919 14.1212C374.881 15.663 375.933 17.7304 376.073 20.3235H370.133C369.993 19.1671 369.45 18.256 368.504 17.5902C367.593 16.9245 366.577 16.5916 365.455 16.5916C364.299 16.5916 363.37 16.8544 362.67 17.38C362.004 17.8706 361.671 18.5539 361.671 19.4299C361.671 20.4811 362.091 21.1995 362.932 21.5849C363.808 21.9354 365.175 22.2332 367.032 22.4785C368.959 22.7588 370.536 23.1092 371.763 23.5297C373.024 23.9152 374.093 24.6861 374.969 25.8425C375.88 26.9638 376.336 28.6283 376.336 30.8359C376.336 33.3238 375.407 35.3211 373.55 36.8279C371.693 38.3347 369.222 39.0881 366.139 39.0881Z" fill="#E1F2D5"/>
<path d="M338.659 39.0881C335.995 39.0881 333.613 38.5099 331.51 37.3535C329.408 36.1621 327.761 34.5327 326.569 32.4653C325.378 30.3628 324.782 28.015 324.782 25.422C324.782 22.8289 325.378 20.4987 326.569 18.4312C327.761 16.3288 329.408 14.6993 331.51 13.543C333.613 12.3516 335.995 11.7559 338.659 11.7559C341.287 11.7559 343.652 12.3516 345.754 13.543C347.857 14.6993 349.504 16.3288 350.695 18.4312C351.887 20.4987 352.482 22.8289 352.482 25.422C352.482 28.015 351.887 30.3628 350.695 32.4653C349.504 34.5327 347.857 36.1621 345.754 37.3535C343.652 38.5099 341.287 39.0881 338.659 39.0881ZM331.3 25.422C331.3 27.8048 331.966 29.7496 333.297 31.2564C334.664 32.7631 336.451 33.5165 338.659 33.5165C340.831 33.5165 342.583 32.7631 343.915 31.2564C345.281 29.7496 345.965 27.8048 345.965 25.422C345.965 23.0392 345.281 21.0944 343.915 19.5876C342.583 18.0808 340.831 17.3274 338.659 17.3274C336.451 17.3274 334.664 18.0808 333.297 19.5876C331.966 21.0593 331.3 23.0041 331.3 25.422Z" fill="#E1F2D5"/>
<path d="M319.829 17.5897C317.832 17.5897 316.378 18.3606 315.466 19.9024C314.555 21.4092 314.1 23.4941 314.1 26.1573V38.667H307.635V12.1758H314.1V16.8538C314.766 15.1718 315.624 13.9804 316.675 13.2796C317.762 12.5437 319.163 12.1758 320.88 12.1758H323.982V17.5897H319.829Z" fill="#E1F2D5"/>
<path d="M295.175 12.1757H301.64V38.6669H295.175V12.1757ZM301.85 0.822266V8.02326H294.912V0.822266H301.85Z" fill="#E1F2D5"/>
<path d="M278.219 39.0881C275.451 39.0881 273.033 38.4398 270.966 37.1433C268.933 35.8468 267.374 34.1473 266.288 32.0448C265.237 29.9423 264.711 27.6997 264.711 25.3169C264.711 22.899 265.202 20.6739 266.183 18.6415C267.164 16.574 268.636 14.9096 270.598 13.6481C272.56 12.3866 274.925 11.7559 277.694 11.7559C280.497 11.7559 282.862 12.3691 284.79 13.5955C286.752 14.7869 288.206 16.3638 289.152 18.3261C290.098 20.2534 290.571 22.3208 290.571 24.5284C290.571 25.2993 290.536 26.0352 290.466 26.736H270.913C271.159 28.8735 271.929 30.573 273.226 31.8345C274.523 33.096 276.187 33.7268 278.219 33.7268C279.866 33.7268 281.215 33.3939 282.267 32.7281C283.318 32.0623 284.019 31.0987 284.369 29.8372H290.677C290.186 32.6405 288.802 34.8831 286.524 36.5651C284.246 38.2471 281.478 39.0881 278.219 39.0881ZM284.106 22.4785C283.966 20.7264 283.318 19.3073 282.162 18.221C281.04 17.1347 279.551 16.5916 277.694 16.5916C273.944 16.5916 271.737 18.5539 271.071 22.4785H284.106Z" fill="#E1F2D5"/>
<path d="M220.052 12.1764H226.517V16.3288C227.183 14.9271 228.164 13.8233 229.46 13.0173C230.792 12.1764 232.351 11.7559 234.138 11.7559C236.241 11.7559 237.993 12.1939 239.395 13.0699C240.831 13.9109 241.847 15.1549 242.443 16.8018C243.074 15.3651 244.178 14.1737 245.755 13.2276C247.366 12.2464 249.189 11.7559 251.221 11.7559C253.078 11.7559 254.725 12.1764 256.162 13.0173C257.599 13.8583 258.702 15.0322 259.473 16.539C260.244 18.0107 260.63 19.6752 260.63 21.5324V38.6676H254.164V23.4772C254.164 21.585 253.709 20.0782 252.798 18.9569C251.887 17.8355 250.66 17.2749 249.119 17.2749C247.402 17.2749 246.035 17.8531 245.019 19.0094C244.038 20.1307 243.547 21.62 243.547 23.4772V38.6676H237.134V23.4772C237.134 21.585 236.679 20.0782 235.768 18.9569C234.857 17.8355 233.63 17.2749 232.088 17.2749C230.371 17.2749 229.005 17.8355 227.989 18.9569C227.007 20.0782 226.517 21.585 226.517 23.4772V38.6676H220.052V12.1764Z" fill="#E1F2D5"/>
<path d="M207.591 12.1757H214.056V38.6669H207.591V12.1757ZM214.266 0.822266V8.02326H207.328V0.822266H214.266Z" fill="#E1F2D5"/>
<path d="M200.087 17.5897C198.09 17.5897 196.635 18.3606 195.724 19.9024C194.813 21.4092 194.358 23.4941 194.358 26.1573V38.667H187.893V12.1758H194.358V16.8538C195.023 15.1718 195.882 13.9804 196.933 13.2796C198.02 12.5437 199.421 12.1758 201.138 12.1758H204.239V17.5897H200.087Z" fill="#E1F2D5"/>
<path d="M157.479 1.87305H172.197C174.72 1.87305 176.892 2.36363 178.715 3.34478C180.572 4.2909 181.991 5.62247 182.972 7.33949C183.953 9.05652 184.444 11.0364 184.444 13.279C184.444 15.5216 183.953 17.5015 182.972 19.2185C181.991 20.9355 180.572 22.2846 178.715 23.2658C176.892 24.2119 174.72 24.6849 172.197 24.6849H164.418V38.6664H157.479V1.87305ZM171.881 18.8506C173.809 18.8506 175.245 18.3249 176.192 17.2737C177.173 16.2225 177.663 14.8909 177.663 13.279C177.663 11.6671 177.173 10.3355 176.192 9.28429C175.245 8.23305 173.809 7.70743 171.881 7.70743H164.418V18.8506H171.881Z" fill="#E1F2D5"/>
</svg>
