<svg width="144" height="38" viewBox="0 0 144 38" fill="none" xmlns="http://www.w3.org/2000/svg">
<path d="M92.565 12.2323C95.0819 12.2323 96.8024 13.8101 97.288 16.6134L87.7976 16.6134C88.372 13.8101 90.0925 12.2323 92.565 12.2323ZM103.468 19.0644C103.468 11.8359 99.3193 7.41329 92.6982 7.41329C86.077 7.41329 81.3096 11.968 81.3096 18.6265C81.3096 25.6788 86.2102 30.2336 93.8887 30.2336C97.0217 30.2336 99.9798 29.4459 102.186 28.0443C102.538 27.8241 102.627 27.4303 102.494 27.0365L101.215 23.8393C100.993 23.2253 100.421 23.0517 99.8467 23.3574C98.2123 24.2331 96.1836 24.715 94.2412 24.715C90.6225 24.715 88.1501 23.0932 87.7088 20.6422L102.583 20.6422C103.068 20.6422 103.465 20.2484 103.465 19.7665V19.0644H103.468ZM66.655 24.671C63.5219 24.671 61.4019 22.2615 61.4019 18.7587C61.4019 15.2558 63.5219 12.7142 66.655 12.7142C69.788 12.7142 71.8636 15.1677 71.8636 18.7587C71.8636 22.3496 69.7436 24.671 66.655 24.671ZM68.6418 7.41329C65.7281 7.41329 63.3 8.55327 61.4907 10.6545V3.51404C61.4907 3.03214 61.0938 2.63834 60.6082 2.63834L55.9296 2.63834C55.444 2.63834 55.0471 3.03214 55.0471 3.51404V28.876C55.0471 29.3579 55.444 29.7517 55.9296 29.7517H60.6082C61.0938 29.7517 61.4907 29.3579 61.4907 28.876V26.8603C63.3 29.0496 65.7281 30.2336 68.6862 30.2336C74.5136 30.2336 78.6622 25.5467 78.6622 18.7587C78.6622 11.9706 74.5136 7.41329 68.6418 7.41329ZM44.4079 29.0962C42.2879 34.3971 38.8468 37.2444 34.4319 37.2444C33.6826 37.2444 32.9306 37.1563 32.2257 37.0242C31.8288 36.9361 31.6069 36.5864 31.6069 36.1925V32.4695C31.6069 31.8555 32.0925 31.4616 32.7557 31.5497C33.0638 31.5938 33.4189 31.5938 33.7269 31.5938C35.9331 31.5938 37.3012 30.63 37.7006 28.7905L30.4608 9.29943C30.1971 8.55586 30.6383 7.94182 31.3876 7.94182L36.5519 7.94182C36.9043 7.94182 37.2594 8.16205 37.3456 8.51181L41.1861 21.5646L45.4679 8.51181C45.5567 8.16205 45.9091 7.94182 46.2616 7.94182L51.3371 7.94182C52.0864 7.94182 52.5276 8.64394 52.264 9.34348L44.4079 29.0988V29.0962ZM21.5865 11.2244C22.8214 9.29684 24.6751 7.85114 27.2808 7.85114C27.722 7.85114 27.9439 8.15687 27.9439 8.72685V13.8516C27.9439 14.3335 27.5471 14.7273 27.0614 14.7273H24.8997C22.7379 14.7273 21.5891 15.9528 21.5891 18.1887V28.876C21.5891 29.3579 21.1923 29.7517 20.7066 29.7517H16.0724C15.5868 29.7517 15.1899 29.3579 15.1899 28.876L15.1899 8.7709C15.1899 8.289 15.5868 7.89519 16.0724 7.89519L20.7066 7.89519C21.1923 7.89519 21.5891 8.289 21.5891 8.7709V11.2244H21.5865ZM6.44618 3.51404L6.44618 7.89519L11.6548 7.89519C12.1404 7.89519 12.5373 8.289 12.5373 8.7709L12.5373 12.4059C12.5373 12.8878 12.1404 13.2816 11.6548 13.2816L6.44618 13.2816L6.44618 21.2977C6.44618 23.1372 7.55058 24.101 9.71236 24.101C10.198 24.101 10.7724 24.057 11.3468 23.9248C12.0099 23.7927 12.5373 24.2306 12.5373 24.8886V28.4796C12.5373 28.8734 12.2736 29.2231 11.8298 29.3112C10.3729 29.5729 8.91605 29.7491 7.7255 29.7491C3.00248 29.7491 0 27.166 0 23.1787L0 3.51145C0 3.02955 0.39685 2.63574 0.882468 2.63574L5.56111 2.63574C6.04672 2.63574 6.44357 3.02955 6.44357 3.51145L6.44618 3.51404Z" fill="#E1F2D5"/>
<path d="M128.662 16.1304H113.741C112.423 16.1304 111.953 14.3972 113.096 13.7417L135.476 0.919513C136.62 0.264026 137.899 1.53355 137.239 2.66834L129.78 15.4905C129.55 15.8869 129.124 16.1304 128.662 16.1304Z" fill="#1DB702"/>
<path d="M144 5.80259V31.4469C144 32.7553 142.253 33.2216 141.592 32.0868L134.133 19.2647C133.903 18.8683 133.903 18.3812 134.133 17.9848L141.592 5.16265C142.253 4.02785 144 4.4942 144 5.80259Z" fill="#1DB702"/>
<path d="M129.779 21.7601L137.238 34.5822C137.898 35.717 136.619 36.9865 135.476 36.3311L113.095 23.5089C111.952 22.8534 112.422 21.1201 113.74 21.1201L128.661 21.1201C129.121 21.1201 129.549 21.3637 129.779 21.7601Z" fill="#1DB702"/>
</svg>
